<svg width="20" height="20" viewBox="0 0 20 20" fill="none" xmlns="http://www.w3.org/2000/svg">
<rect width="20" height="20" fill="#E5E5E5"/>
<path d="M20 0H0V20H20V0Z" fill="#E6007A"/>
<path d="M10.0002 5.8973C11.4045 5.8973 12.5429 5.23491 12.5429 4.4178C12.5429 3.6007 11.4045 2.9383 10.0002 2.9383C8.59593 2.9383 7.45752 3.6007 7.45752 4.4178C7.45752 5.23491 8.59593 5.8973 10.0002 5.8973Z" fill="white"/>
<path d="M10.0002 17.041C11.4045 17.041 12.5429 16.3786 12.5429 15.5615C12.5429 14.7443 11.4045 14.0819 10.0002 14.0819C8.59593 14.0819 7.45752 14.7443 7.45752 15.5615C7.45752 16.3786 8.59593 17.041 10.0002 17.041Z" fill="white"/>
<path d="M6.45599 7.94352C7.15814 6.72737 7.15369 5.41028 6.44606 5.00173C5.73842 4.59318 4.59557 5.24787 3.89342 6.46402C3.19127 7.68017 3.19572 8.99725 3.90336 9.40581C4.61099 9.81436 5.75385 9.15967 6.45599 7.94352Z" fill="white"/>
<path d="M16.1064 13.5154C16.8085 12.2992 16.8041 10.9822 16.0964 10.5736C15.3888 10.1651 14.2459 10.8198 13.5438 12.0359C12.8417 13.252 12.8461 14.5691 13.5537 14.9776C14.2614 15.3862 15.4042 14.7315 16.1064 13.5154Z" fill="white"/>
<path d="M6.44604 14.9776C7.15367 14.569 7.15812 13.2519 6.45597 12.0358C5.75383 10.8196 4.61098 10.1649 3.90335 10.5735C3.19572 10.982 3.19127 12.2991 3.89342 13.5153C4.59556 14.7314 5.73841 15.3861 6.44604 14.9776Z" fill="white"/>
<path d="M16.0964 9.40593C16.8041 8.99737 16.8085 7.68027 16.1064 6.4641C15.4042 5.24794 14.2614 4.59324 13.5537 5.0018C12.8461 5.41035 12.8417 6.72745 13.5438 7.94362C14.2459 9.15979 15.3888 9.81448 16.0964 9.40593Z" fill="white"/>
</svg>
