<svg xmlns="http://www.w3.org/2000/svg" fill="none" viewBox="0 0 112 32"><path fill="#111827" fill-rule="evenodd" d="M2.24 8A2.24 2.24 0 0 0 0 10.24v14.836a2.24 2.24 0 0 0 2.24 2.24h4.9c5.61 0 8.915-3.601 8.915-9.732C16.055 11.454 12.751 8 7.14 8h-4.9Zm2.674 3.333h1.76c3.447 0 5.39 2.222 5.39 6.265 0 4.176-1.891 6.371-5.39 6.371h-1.76a1 1 0 0 1-1-1V12.333a1 1 0 0 1 1-1Zm14.159 15.982a1.12 1.12 0 0 1-1.12-1.12v-12.11c0-.618.501-1.12 1.12-1.12h1.415c.618 0 1.12.502 1.12 1.12v1.42a.044.044 0 0 0 .086.011c.498-1.8 1.672-2.778 3.295-2.778.123 0 .24.005.352.014.437.037.724.432.724.87v1.303c0 .662-.711 1.173-1.374 1.173-1.866 0-2.954 1.178-2.954 3.199v6.898a1.12 1.12 0 0 1-1.12 1.12h-1.544Zm14.152.308c4.198 0 6.88-2.77 6.88-7.496 0-4.658-2.72-7.469-6.88-7.469s-6.881 2.825-6.881 7.47c0 4.711 2.682 7.495 6.88 7.495ZM30.18 20.14c0 2.878 1.179 4.498 3.045 4.498 1.853 0 3.032-1.62 3.032-4.498 0-2.85-1.192-4.497-3.032-4.497s-3.045 1.646-3.045 4.497Zm15.392-4.7a.047.047 0 0 1-.09-.02v-1.335a1.12 1.12 0 0 0-1.12-1.12H42.87a1.12 1.12 0 0 0-1.12 1.12V30.88c0 .618.501 1.12 1.12 1.12h1.544a1.12 1.12 0 0 0 1.12-1.12v-5.927a.047.047 0 0 1 .09-.02c.744 1.604 2.293 2.61 4.303 2.61 3.472 0 5.623-2.785 5.623-7.403 0-4.631-2.163-7.402-5.688-7.402-1.998 0-3.534 1.033-4.29 2.703Zm-.04 4.701c0 2.597 1.217 4.257 3.07 4.257 1.892 0 3.084-1.646 3.084-4.257 0-2.596-1.192-4.27-3.084-4.27-1.853 0-3.07 1.7-3.07 4.27Zm11.427-2.958c0-2.731 2.28-4.525 5.819-4.525 3.113 0 5.188 1.441 5.714 3.68.129.548-.335 1.018-.898 1.018H66.04c-.514 0-.916-.41-1.16-.862-.364-.675-1.087-1.092-2.103-1.092-1.31 0-2.178.616-2.178 1.566 0 .736.519 1.232 1.918 1.54l2.372.522c2.902.629 4.094 1.807 4.094 3.908 0 2.825-2.5 4.685-6.077 4.685-3.327 0-5.435-1.39-6.096-3.6-.169-.563.303-1.071.89-1.071h1.77c.482 0 .87.36 1.099.784.406.75 1.185 1.143 2.337 1.143 1.425 0 2.307-.602 2.307-1.54 0-.762-.48-1.19-1.84-1.512l-2.372-.508c-2.682-.59-4.043-1.981-4.043-4.136Zm23.131 9.012a1.12 1.12 0 0 1-1.12 1.12h-1.673a1.12 1.12 0 0 1-1.12-1.12V11.833a.5.5 0 0 0-.5-.5h-3.784a1.12 1.12 0 0 1-1.12-1.12V9.12c0-.619.502-1.12 1.12-1.12h12.494c.619 0 1.12.501 1.12 1.12v1.093a1.12 1.12 0 0 1-1.12 1.12H80.59a.5.5 0 0 0-.5.5v14.362Zm12.13-1.049c-.784 1.51-2.498 2.397-4.224 2.397-2.644 0-4.652-1.767-4.652-4.35 0-2.61 1.944-4.123 5.403-4.337l3.03-.186a.5.5 0 0 0 .469-.499v-.48c0-1.338-.907-2.115-2.332-2.115-1.224 0-2.058.542-2.378 1.374-.087.228-.288.407-.532.407h-2.512c-.286 0-.517-.241-.473-.524.388-2.498 2.618-4.175 6.063-4.175 3.564 0 5.883 1.9 5.883 4.792v8.746a1.12 1.12 0 0 1-1.12 1.12H93.43a1.12 1.12 0 0 1-1.12-1.12v-1.028a.048.048 0 0 0-.09-.022Zm-2.98-.428c-1.283 0-2.138-.669-2.138-1.74 0-1.017.803-1.673 2.215-1.78l2.397-.153a.5.5 0 0 1 .532.499v.51c0 1.554-1.36 2.665-3.006 2.665Zm22.756-4.577c0 4.618-2.138 7.402-5.637 7.402-2.023 0-3.572-1.006-4.341-2.663a.048.048 0 0 0-.043-.028.047.047 0 0 0-.048.048v1.296a1.12 1.12 0 0 1-1.119 1.12h-1.493a1.12 1.12 0 0 1-1.12-1.12V9.12c0-.619.502-1.12 1.12-1.12h1.544c.619 0 1.12.501 1.12 1.12v6.289c0 .026.021.047.047.047a.049.049 0 0 0 .044-.028c.768-1.683 2.304-2.69 4.276-2.69 3.499 0 5.65 2.771 5.65 7.403Zm-6.935-4.27c1.879 0 3.071 1.66 3.071 4.27 0 2.624-1.179 4.257-3.071 4.257-1.84 0-3.084-1.66-3.084-4.257 0-2.57 1.257-4.27 3.084-4.27Z" clip-rule="evenodd"/></svg>